<svg id="Capa_1" enable-background="new 0 0 512 512" height="512" viewBox="0 0 512 512" width="512" xmlns="http://www.w3.org/2000/svg"><g><g><g><path d="m161.921 32.421c4.145 0 7.505-3.36 7.505-7.505v-14.481c0-4.145-3.36-7.505-7.505-7.505s-7.505 3.36-7.505 7.505v14.481c0 4.144 3.36 7.505 7.505 7.505z"/><path d="m262.53 69.698 10.239-10.24c2.931-2.931 2.931-7.683 0-10.613-2.931-2.932-7.683-2.931-10.613 0l-10.239 10.24c-2.931 2.931-2.931 7.683 0 10.613 1.465 1.466 3.386 2.198 5.307 2.198 1.92 0 3.84-.733 5.306-2.198z"/><path d="m61.312 249.688-10.24 10.239c-2.931 2.931-2.931 7.682 0 10.613 1.465 1.466 3.386 2.198 5.307 2.198s3.841-.733 5.307-2.198l10.24-10.239c2.931-2.931 2.931-7.682 0-10.613s-7.683-2.931-10.614 0z"/><path d="m311.178 167.198c4.145 0 7.505-3.36 7.505-7.505s-3.36-7.505-7.505-7.505h-14.48c-4.145 0-7.505 3.36-7.505 7.505s3.36 7.505 7.505 7.505z"/><path d="m27.144 152.188h-14.481c-4.145 0-7.505 3.36-7.505 7.505s3.36 7.505 7.505 7.505h14.481c4.145 0 7.505-3.36 7.505-7.505s-3.361-7.505-7.505-7.505z"/><path d="m262.53 249.688c-2.931-2.931-7.683-2.931-10.613 0-2.931 2.931-2.931 7.683 0 10.613l9.383 9.383c1.465 1.465 3.386 2.198 5.307 2.198s3.841-.733 5.307-2.198c2.931-2.931 2.931-7.683 0-10.613z"/><path d="m61.312 69.698c1.465 1.465 3.386 2.198 5.307 2.198s3.841-.733 5.307-2.198c2.931-2.931 2.931-7.683 0-10.613l-10.24-10.24c-2.931-2.931-7.683-2.931-10.613 0-2.931 2.931-2.931 7.683 0 10.613z"/><path d="m137.891 215.28c.59-.589 1.279-.726 2.05-.408.771.32 1.161.904 1.161 1.738 0 9.926 8.075 18.001 18.001 18.001h5.635c9.926 0 18.001-8.075 18.001-18.001 0-.834.391-1.419 1.161-1.738.771-.318 1.46-.182 2.05.408 3.4 3.4 7.92 5.272 12.728 5.272s9.329-1.872 12.729-5.272l3.985-3.985c3.4-3.4 5.272-7.92 5.272-12.728s-1.872-9.329-5.272-12.729c-.59-.59-.727-1.28-.408-2.05.32-.771.904-1.161 1.738-1.161 9.926 0 18.001-8.075 18.001-18.001v-5.635c0-9.926-8.076-18.001-18.001-18.001-.834 0-1.418-.391-1.738-1.161-.319-.771-.182-1.46.408-2.05 3.4-3.4 5.272-7.92 5.272-12.729 0-4.808-1.872-9.329-5.272-12.728l-3.984-3.985c-3.4-3.4-7.921-5.272-12.729-5.272s-9.329 1.872-12.728 5.272c-.591.589-1.28.726-2.05.408-.771-.32-1.161-.904-1.161-1.738 0-9.926-8.075-18.001-18.001-18.001h-5.635c-9.926 0-18.001 8.075-18.001 18.001 0 .834-.391 1.419-1.161 1.738-.771.319-1.46.181-2.05-.408-3.4-3.4-7.921-5.272-12.728-5.272-4.808 0-9.329 1.872-12.729 5.273l-3.984 3.984c-3.4 3.4-5.272 7.921-5.272 12.729s1.872 9.329 5.272 12.729c.59.59.727 1.28.407 2.05-.319.771-.904 1.161-1.738 1.161-9.926 0-18.001 8.075-18.001 18.001v5.635c0 9.926 8.075 18.001 18.001 18.001.834 0 1.419.391 1.738 1.161.32.771.182 1.46-.407 2.05-3.4 3.4-5.272 7.921-5.272 12.729s1.872 9.329 5.272 12.728l3.985 3.985c7.017 7.017 18.437 7.017 25.455-.001zm-30.772-47.663c-1.65 0-2.991-1.342-2.991-2.991v-5.635c0-1.65 1.342-2.991 2.991-2.991 6.856 0 12.982-4.093 15.605-10.427 2.624-6.334 1.186-13.56-3.662-18.408-.762-.762-.876-1.652-.876-2.115s.113-1.352.877-2.116l3.984-3.984c1.166-1.167 3.064-1.168 4.23 0 4.848 4.848 12.074 6.284 18.407 3.662 6.335-2.623 10.428-8.749 10.428-15.605 0-1.65 1.342-2.991 2.991-2.991h5.635c1.65 0 2.991 1.342 2.991 2.991 0 6.856 4.093 12.982 10.427 15.605 6.334 2.625 13.559 1.187 18.408-3.662.762-.762 1.652-.876 2.115-.876s1.352.113 2.115.876l3.985 3.985c1.166 1.166 1.166 3.064 0 4.23-4.848 4.848-6.285 12.073-3.662 18.407 2.624 6.334 8.749 10.427 15.605 10.427 1.65 0 2.992 1.342 2.992 2.991v5.635c0 1.65-1.342 2.991-2.992 2.991-6.856 0-12.981 4.093-15.605 10.427s-1.187 13.56 3.662 18.407c1.166 1.166 1.166 3.064 0 4.23l-3.985 3.985c-1.167 1.166-3.064 1.166-4.23 0-4.848-4.848-12.075-6.285-18.407-3.662-6.334 2.624-10.427 8.749-10.427 15.605 0 1.65-1.342 2.991-2.991 2.991h-5.635c-1.65 0-2.991-1.342-2.991-2.991 0-6.857-4.093-12.982-10.428-15.605-2.102-.871-4.302-1.294-6.481-1.294-4.387 0-8.687 1.716-11.926 4.955-1.167 1.167-3.064 1.166-4.23 0l-3.985-3.985c-.762-.762-.876-1.652-.876-2.115s.113-1.352.876-2.115c4.848-4.848 6.285-12.073 3.662-18.407-2.625-6.332-8.75-10.425-15.606-10.425z"/><path d="m161.921 187.861c14.365 0 26.053-11.687 26.053-26.053s-11.687-26.053-26.053-26.053c-14.365 0-26.053 11.687-26.053 26.053s11.687 26.053 26.053 26.053zm0-37.096c6.089 0 11.043 4.954 11.043 11.043s-4.954 11.043-11.043 11.043-11.043-4.954-11.043-11.043 4.954-11.043 11.043-11.043z"/><path d="m503.979 278.753-22.387-46.994c-.861-1.808-1.329-3.822-1.354-5.824l-.428-34.424c0-105.238-84.725-191.15-188.865-191.51-.22-.001-.44-.001-.661-.001-33.852 0-67.061 9.028-96.077 26.127-3.571 2.104-4.76 6.705-2.656 10.276s6.705 4.76 10.276 2.656c26.709-15.739 57.283-24.049 88.457-24.049.203 0 .406 0 .609.001 95.892.332 173.907 79.51 173.908 176.593l.428 34.516c.051 4.157 1.024 8.338 2.812 12.093l22.387 46.994c4.49 9.426-2.437 20.125-12.632 20.126-16.053-.188-29.231 12.804-29.232 28.949l-.003 60.618c-.001 14.5-12.877 25.597-27.201 23.502l-52.398-7.685c-15.891-2.331-30.144 10.001-30.144 26.046v16.582l-158.535-14.659v-24.869c0-4.145-3.36-7.505-7.505-7.505s-7.505 3.36-7.505 7.505v23.481l-2.757-.255c-14.783-1.369-27.565 10.291-27.565 25.134v24.394c0 13.905 11.312 25.228 25.217 25.241l197.217.188h.025c13.939 0 25.24-11.279 25.24-25.241v-6.347c0-13.121-9.852-23.926-22.917-25.134l-5.906-.546v-17.97c0-6.912 6.106-12.195 12.956-11.195l52.398 7.685c23.402 3.434 44.388-14.729 44.389-38.352l.003-60.618c.001-7.724 6.277-14.03 14.15-13.94 21.356.001 35.458-22.272 26.256-41.589zm-136.339 201.66v6.347c0 5.65-4.572 10.231-10.231 10.231-.003 0-.007 0-.01 0l-197.218-.189c-5.636-.005-10.221-4.595-10.221-10.231v-24.394c0-5.981 5.123-10.749 11.173-10.187l10.873 1.005c.003 0 .005 0 .008.001l186.337 17.23c5.296.489 9.289 4.868 9.289 10.187z"/><path d="m147.13 386.236h31.69c19.769 0 36.071-15.112 37.968-34.39 5.981-2.664 10.167-8.654 10.167-15.612v-36.231c0-5.912-3.018-11.13-7.593-14.201 5.628-19.536 15.409-37.956 28.54-53.605 61.87-73.728 7.848-185.511-87.579-184.244-94.071 1.311-144.527 111.648-84.839 183.696 13.306 16.062 23.214 34.69 28.91 54.211-4.526 3.078-7.506 8.268-7.506 14.142v36.231c0 7.786 5.238 14.359 12.371 16.415 2.265 18.892 18.379 33.588 37.871 33.588zm-33.15-47.919c-1.149 0-2.083-.934-2.083-2.083v-36.231c0-1.149.934-2.083 2.083-2.083h95.867c.025.002.05.005.075.006 1.119.034 2.021.95 2.021 2.077v36.231c0 1.149-.935 2.083-2.083 2.083zm64.84 32.909h-31.69c-10.958 0-20.155-7.657-22.538-17.9h76.766c-2.383 10.243-11.58 17.9-22.538 17.9zm-18.288-308.265c83.237-1.098 128.955 96.328 75.872 159.588-14.757 17.585-25.679 38.349-31.825 60.361h-85.415c-6.207-21.936-17.232-42.862-32.122-60.836-51.718-62.429-7.932-157.977 73.49-159.113z"/></g></g></g></svg>