<?xml version="1.0" encoding="UTF-8"?>
<svg xmlns="http://www.w3.org/2000/svg" id="Layer_1" data-name="Layer 1" viewBox="0 0 512 512" width="512" height="512"><path d="M380.76,59.023C344.8,25.113,295.247,7.371,244.831,10.329A179.87,179.87,0,0,0,126.674,64.045c-31.4,32.043-48.785,73.549-48.941,116.872-.192,53.642,24.828,103.22,68.644,135.758A79.077,79.077,0,0,1,177.993,369h-5.112A5.647,5.647,0,0,0,167,374.7v88.312A5.892,5.892,0,0,0,172.881,469h12.951l2.582,7.829A36.6,36.6,0,0,0,223.223,502h65.555a36.6,36.6,0,0,0,34.809-25.171L326.169,469H339.12a5.891,5.891,0,0,0,5.88-5.991V374.7a5.646,5.646,0,0,0-5.88-5.7h-5.086c3.078-21,14.228-39.152,31.227-51.934,43.855-32.972,69.008-82.4,69.008-135.466C434.269,135.141,415.266,91.56,380.76,59.023ZM312.192,473.067A24.617,24.617,0,0,1,288.778,490H223.223a24.618,24.618,0,0,1-23.414-16.932L198.468,469H313.533ZM333,457H179V412H333Zm0-57H179V381H333Zm33-239.417v24.1a26.562,26.562,0,1,0,12,0V160.583A9.469,9.469,0,0,1,387.417,151h31.81a155.232,155.232,0,0,1,3.042,30.6c0,48.486-22.688,93.725-62.313,124.4H326.373a26.593,26.593,0,1,0-.068,12H346.3a92.207,92.207,0,0,0-24.371,51H262V244.314a9.685,9.685,0,0,1,8.773-9.515,27.014,27.014,0,1,0,1.615-11.8h-.571C259.929,223,250,232.425,250,244.314V369H236V299.056A22.438,22.438,0,0,0,213.948,277H203.577c-2.668-11-13.293-20.536-25.965-20.536A26.586,26.586,0,1,0,203.5,289h10.449A10.436,10.436,0,0,1,224,299.056V369H190.1c-3.128-25-16.242-46.864-36.57-61.959C116.646,279.65,94.094,239.35,90.3,195h13.886A9.647,9.647,0,0,1,114,204.4v4.453A21.028,21.028,0,0,0,135.312,230h23.693a25.971,25.971,0,0,0,25.639,19.69,26.642,26.642,0,0,0,0-53.283A26.871,26.871,0,0,0,158.481,218H135.312A9.02,9.02,0,0,1,126,208.848V204.4A21.659,21.659,0,0,0,104.189,183H89.755c-.006-.655-.024-1.308-.022-1.964.145-40.18,16.307-78.756,45.511-108.553A167.891,167.891,0,0,1,192,34.412V52.894a21.534,21.534,0,0,0,21.5,21.562,9.52,9.52,0,0,1,9.5,9.561V129.19a9.89,9.89,0,0,1-9.681,9.81H199.4a26.6,26.6,0,1,0-25.956,32.361c12.566,0,23.118-9.361,25.9-20.361h13.977A21.9,21.9,0,0,0,235,129.19V84.017a21.533,21.533,0,0,0-21.5-21.561,9.52,9.52,0,0,1-9.5-9.562V30.058a168.694,168.694,0,0,1,41.534-7.731c3.83-.225,7.654-.309,11.466-.281V62.39A21.767,21.767,0,0,0,278.724,84H288.4a9.565,9.565,0,0,1,9.6,9.513v40.608a26.364,26.364,0,0,0-22.371,26.271A26.619,26.619,0,1,0,310,134.925V93.513A21.578,21.578,0,0,0,288.4,72h-9.675A9.753,9.753,0,0,1,269,62.39V22.547c38.767,2.966,75.561,18.844,103.527,45.216A157.378,157.378,0,0,1,416.31,139H387.417A21.481,21.481,0,0,0,366,160.583ZM386.472,210.6a14.617,14.617,0,1,1-14.617-14.616A14.633,14.633,0,0,1,386.472,210.6ZM315.029,311.792a14.616,14.616,0,1,1-14.616-14.617A14.632,14.632,0,0,1,315.029,311.792Zm-32.282-79.838a14.616,14.616,0,1,1,14.616,14.616A14.633,14.633,0,0,1,282.747,231.954Zm-90.518,51.373a14.617,14.617,0,1,1-14.617-14.616A14.633,14.633,0,0,1,192.229,283.327Zm-22.2-60.048A14.617,14.617,0,1,1,184.644,237.9,14.632,14.632,0,0,1,170.027,223.279Zm18.035-78.658A14.616,14.616,0,1,1,173.446,130,14.632,14.632,0,0,1,188.062,144.621Zm114.165,1.154a14.617,14.617,0,1,1-14.617,14.617A14.633,14.633,0,0,1,302.227,145.775Z"/><path d="M193.234,437h4.5a6,6,0,1,0,0-12h-4.5a6,6,0,0,0,0,12Z"/><path d="M219.768,437h58.741a6,6,0,0,0,0-12H219.768a6,6,0,0,0,0,12Z"/></svg>
