<?xml version="1.0" encoding="iso-8859-1"?>
<!-- Generator: Adobe Illustrator 19.0.0, SVG Export Plug-In . SVG Version: 6.00 Build 0)  -->
<svg version="1.1" id="Capa_1" xmlns="http://www.w3.org/2000/svg" xmlns:xlink="http://www.w3.org/1999/xlink" x="0px" y="0px"
	 viewBox="0 0 511.999 511.999" style="enable-background:new 0 0 511.999 511.999;" xml:space="preserve">
<g>
	<g>
		<path d="M173.077,120.967c-3.9-3.91-10.239-3.91-14.139,0c-3.91,3.9-3.91,10.239,0,14.139c3.9,3.91,10.239,3.91,14.139,0
			C176.987,131.206,176.987,124.867,173.077,120.967z"/>
	</g>
</g>
<g>
	<g>
		<path d="M427.114,203.03l19.56-40.021c7.155-14.628,1.494-32.056-12.884-39.674l-39.357-20.887l-7.695-43.88
			c-2.806-16.023-17.62-26.787-33.746-24.514l-44.043,6.225L276.947,8.574c-0.027-0.028-0.056-0.056-0.084-0.082
			c-11.698-11.323-30.026-11.323-41.725,0c-0.028,0.026-0.057,0.054-0.084,0.082l-32.003,31.705l-44.043-6.225
			c-16.112-2.282-30.939,8.49-33.746,24.512l-7.695,43.882l-39.351,20.884c-14.384,7.621-20.045,25.05-12.892,39.673l19.561,40.025
			l-19.56,40.021c-7.155,14.628-1.494,32.056,12.884,39.674l39.357,20.887l7.693,43.871c1.458,8.366,6.322,15.459,13.065,19.892
			l-54.489,89.427c-2.127,3.49-1.915,7.924,0.535,11.195c2.45,3.272,6.645,4.724,10.592,3.666l44.976-12.051l12.051,44.976
			c1.174,4.38,5.141,7.411,9.661,7.411c3.463,0,6.723-1.802,8.551-4.822l66.162-109.312c5.651,4.907,12.641,7.362,19.632,7.362
			c6.991,0,13.983-2.456,19.638-7.362l66.162,109.312c1.828,3.021,5.089,4.822,8.551,4.822c4.518,0,8.487-3.03,9.661-7.411
			l12.051-44.976l44.976,12.051c3.945,1.061,8.143-0.393,10.592-3.666c2.45-3.271,2.662-7.705,0.535-11.195l-54.486-89.427
			c6.742-4.433,11.606-11.522,13.063-19.881l7.695-43.882l39.351-20.884c14.384-7.621,20.045-25.05,12.892-39.673L427.114,203.03z
			 M165.238,476.76l-8.569-31.981c-1.43-5.333-6.912-8.501-12.246-7.07l-30.516,8.176l45.01-73.869
			c0.031-0.004,0.061-0.006,0.092-0.01l44.116-6.234l18.473,17.874L165.238,476.76z M398.094,445.883l-30.517-8.175
			c-5.337-1.43-10.816,1.737-12.246,7.07l-8.569,31.981l-56.359-93.115l18.473-17.875l44.138,6.237
			c0.023,0.003,0.047,0.005,0.071,0.008L398.094,445.883z M424.416,265.061l-43.676,23.178c-2.725,1.445-4.63,4.067-5.161,7.104
			l-8.541,48.706c-0.911,5.229-5.799,8.908-11.248,8.154l-48.955-6.919c-3.053-0.434-6.135,0.569-8.352,2.714l-35.523,34.374
			c-3.903,3.771-10.016,3.773-13.913,0.007l-35.531-34.381c-2.222-2.149-5.311-3.146-8.352-2.714
			c-51.167,7.144-49.16,7.15-51.179,6.984c-0.006-0.001-0.012-0.001-0.018-0.001c-4.524-0.367-8.228-3.747-9.009-8.229
			l-8.539-48.695c-0.532-3.038-2.438-5.659-5.161-7.104l-43.682-23.181c-4.789-2.538-6.672-8.344-4.287-13.223l21.708-44.416
			c1.354-2.771,1.354-6.01,0-8.78l-21.71-44.42c-2.384-4.875-0.5-10.681,4.295-13.222l43.676-23.178
			c2.725-1.445,4.63-4.067,5.161-7.104l8.539-48.697c0.936-5.337,5.874-8.928,11.25-8.163l48.955,6.919
			c3.095,0.44,6.216-0.599,8.437-2.798l35.48-35.15c3.889-3.727,9.948-3.727,13.837,0l35.48,35.15
			c2.221,2.2,5.341,3.239,8.437,2.798l48.955-6.919c5.377-0.76,10.314,2.826,11.25,8.165l8.539,48.695
			c0.532,3.038,2.438,5.659,5.161,7.104L424.421,141c4.79,2.539,6.673,8.344,4.288,13.223l-21.708,44.416
			c-1.354,2.771-1.354,6.01,0,8.78l21.71,44.42C431.095,256.713,429.211,262.52,424.416,265.061z"/>
	</g>
</g>
<g>
	<g>
		<path d="M275.998,198.03h-9.999v-39.996h9.999c5.513,0,9.999,4.486,9.999,9.999c0,5.521,4.478,9.999,9.999,9.999
			s9.999-4.478,9.999-9.999c0-16.54-13.457-29.997-29.997-29.997h-9.999v-9.999c0-5.521-4.478-9.999-9.999-9.999
			c-5.521,0-9.999,4.478-9.999,9.999v9.999h-9.999c-16.54,0-29.997,13.457-29.997,29.997v19.998
			c0,16.54,13.457,29.997,29.997,29.997H246v39.996h-9.999c-5.513,0-9.999-4.486-9.999-9.999c0-5.521-4.478-9.999-9.999-9.999
			c-5.521,0-9.999,4.478-9.999,9.999c0,16.54,13.457,29.997,29.997,29.997H246v9.999c0,5.521,4.478,9.999,9.999,9.999
			c5.521,0,9.999-4.478,9.999-9.999v-9.999h9.999c16.54,0,29.997-13.457,29.997-29.997v-19.998
			C305.995,211.487,292.538,198.03,275.998,198.03z M246,198.03h-9.999c-5.513,0-9.999-4.486-9.999-9.999v-19.998
			c0-5.513,4.486-9.999,9.999-9.999H246V198.03z M285.997,248.025c0,5.513-4.486,9.999-9.999,9.999h-9.999v-39.996h9.999
			c5.513,0,9.999,4.486,9.999,9.999V248.025z"/>
	</g>
</g>
<g>
	<g>
		<path d="M255.999,78.042c-22.224,0-44.168,5.714-63.462,16.524c-4.818,2.699-6.535,8.793-3.836,13.61
			c2.7,4.82,8.795,6.534,13.61,3.836c16.314-9.141,34.88-13.973,53.687-13.973c60.648,0,109.99,49.341,109.99,109.989
			s-49.341,109.99-109.99,109.99c-60.648,0-109.989-49.341-109.989-109.99c0-14.573,2.802-28.723,8.327-42.058
			c2.114-5.102-0.308-10.951-5.409-13.065c-5.104-2.113-10.951,0.308-13.065,5.409c-6.536,15.772-9.851,32.499-9.851,49.713
			c0,71.676,58.311,129.988,129.988,129.988c71.676,0,129.988-58.311,129.988-129.988S327.676,78.042,255.999,78.042z"/>
	</g>
</g>
<g>
</g>
<g>
</g>
<g>
</g>
<g>
</g>
<g>
</g>
<g>
</g>
<g>
</g>
<g>
</g>
<g>
</g>
<g>
</g>
<g>
</g>
<g>
</g>
<g>
</g>
<g>
</g>
<g>
</g>
</svg>
