<svg id="Icons" height="512" viewBox="0 0 74 74" width="512" xmlns="http://www.w3.org/2000/svg"><path d="m37 65.8a1 1 0 0 1 -.8-.406c-.881-1.194-21.442-29.228-21.442-41.152a22.242 22.242 0 0 1 44.484 0c0 11.924-20.561 39.96-21.437 41.148a1 1 0 0 1 -.805.41zm0-61.8a20.266 20.266 0 0 0 -20.242 20.242c0 9.994 16.384 33.458 20.242 38.848 3.858-5.39 20.242-28.854 20.242-38.848a20.266 20.266 0 0 0 -20.242-20.242z"/><path d="m58.811 72h-43.622a1 1 0 0 1 -.965-1.26l5.295-19.678a1 1 0 0 1 .965-.74h7.392a1 1 0 1 1 0 2h-6.625l-4.757 17.678h41.011l-4.768-17.678h-6.613a1 1 0 1 1 0-2h7.376a1 1 0 0 1 .966.74l5.31 19.678a1 1 0 0 1 -.965 1.26z"/><path d="m37 39.139a14.935 14.935 0 1 1 14.935-14.934 14.952 14.952 0 0 1 -14.935 14.934zm0-27.869a12.935 12.935 0 1 0 12.935 12.935 12.949 12.949 0 0 0 -12.935-12.935z"/></svg>