<svg id="Capa_1" enable-background="new 0 0 512 512" height="512" viewBox="0 0 512 512" width="512" xmlns="http://www.w3.org/2000/svg"><g><path d="m509.539 228.942c0-61.321-23.768-118.86-66.925-162.018-43.157-43.156-100.696-66.924-162.018-66.924-61.152 0-118.644 23.815-161.885 67.056-43.233 43.233-67.046 100.717-67.055 161.856l-.07 35.929c-.038 19.332-15.206 34.886-34.53 35.409l-14.594.395v14.6c0 30.149 19.967 65.482 52.108 92.211 11.473 9.542 26.705 19.837 46.178 28.627-.189 2.084-.3 4.19-.3 6.322 0 38.375 31.221 69.596 69.596 69.596 33.054 0 60.78-23.17 67.839-54.117h39.428c7.057 30.946 34.783 54.116 67.837 54.116 38.375 0 69.595-31.221 69.595-69.596 0-8.69-1.615-17.007-4.538-24.684 11.436-7.887 22.245-16.86 32.278-26.893 43.241-43.241 67.056-100.732 67.056-161.885zm-124.796 213.462c0 21.833-17.762 39.596-39.595 39.596-16.962 0-31.462-10.724-37.09-25.746 26.566-3.156 52.095-10.875 75.656-22.784.666 2.874 1.029 5.862 1.029 8.934zm-104.146-14.521h-42.495c-6.699-31.426-34.665-55.073-68.06-55.073-25.579 0-47.964 13.88-60.058 34.494-15.15-7.171-27.1-15.32-36.233-22.914-17.066-14.192-34.261-35.915-39.603-56.642 10.853-3.097 20.766-8.979 28.833-17.252 11.963-12.268 18.57-28.46 18.604-45.596l.07-35.929v-.029c.001-109.697 89.245-198.942 198.941-198.942 53.309 0 103.314 20.647 140.805 58.138 37.49 37.491 58.138 87.497 58.138 140.805-.001 109.696-89.246 198.94-198.942 198.94zm-110.555 54.117c-21.833 0-39.596-17.763-39.596-39.596s17.763-39.595 39.596-39.595 39.595 17.762 39.595 39.595-17.762 39.596-39.595 39.596z"/><path d="m306.658 300.244c-30.304 0-57.784-19.072-68.382-47.46l-28.105 10.492c14.954 40.056 53.729 66.968 96.487 66.968s81.533-26.912 96.488-66.968l-28.105-10.492c-10.599 28.387-38.079 47.46-68.383 47.46z"/><path d="m216.059 156.857h30v50.143h-30z"/><path d="m367.258 156.857h30v50.143h-30z"/></g></svg>