<svg height="368pt" viewBox="0 0 368 368" width="368pt" xmlns="http://www.w3.org/2000/svg"><path d="m328 0h-288c-22.054688 0-40 17.945312-40 40v288c0 22.054688 17.945312 40 40 40h288c22.054688 0 40-17.945312 40-40v-288c0-22.054688-17.945312-40-40-40zm24 328c0 13.230469-10.769531 24-24 24h-288c-13.230469 0-24-10.769531-24-24v-288c0-13.230469 10.769531-24 24-24h288c13.230469 0 24 10.769531 24 24zm0 0"/><path d="m184 48c-74.992188 0-136 61.007812-136 136s61.007812 136 136 136 136-61.007812 136-136-61.007812-136-136-136zm0 256c-63.472656 0-115.449219-49.558594-119.59375-112h63.59375v40c0 4.425781 3.574219 8 8 8h96c4.425781 0 8-3.574219 8-8v-96c0-4.425781-3.574219-8-8-8h-96c-4.425781 0-8 3.574219-8 8v40h-63.59375c4.144531-62.441406 56.121094-112 119.59375-112 66.167969 0 120 53.832031 120 120s-53.832031 120-120 120zm-40-160h80v80h-80zm0 0"/></svg>