<?xml version="1.0" encoding="utf-8"?>
<!-- Generator: Adobe Illustrator 15.0.0, SVG Export Plug-In . SVG Version: 6.00 Build 0)  -->
<!DOCTYPE svg PUBLIC "-//W3C//DTD SVG 1.1//EN" "http://www.w3.org/Graphics/SVG/1.1/DTD/svg11.dtd">
<svg version="1.1" id="Layer_1" xmlns="http://www.w3.org/2000/svg" xmlns:xlink="http://www.w3.org/1999/xlink" x="0px" y="0px"
	 width="595.28px" height="841.89px" viewBox="0 0 595.28 841.89" enable-background="new 0 0 595.28 841.89" xml:space="preserve">
<g>
	<g>
		<path fill="#FFFFFF" d="M282.347,358.713h10.708v74.959h-10.708V358.713z"/>
		<path fill="#FFFFFF" d="M357.252,382.646c4.247,4.176,6.371,10.298,6.371,18.365v32.661h-10.279v-31.483
			c0-5.497-1.321-9.638-3.963-12.422s-6.425-4.176-11.351-4.176c-5.568,0-9.959,1.625-13.172,4.873
			c-3.212,3.25-4.818,7.908-4.818,13.975v29.233h-10.28v-56.755h9.852v8.567c2.07-2.927,4.873-5.175,8.406-6.747
			c3.534-1.569,7.55-2.356,12.048-2.356C347.275,376.381,353.004,378.47,357.252,382.646z"/>
		<path fill="#FFFFFF" d="M428.625,376.917l-24.844,56.755h-10.495l-24.844-56.755h10.709l19.49,45.511l19.917-45.511H428.625z"/>
		<path fill="#FFFFFF" d="M485.058,408.722h-46.047c0.643,4.997,2.838,9.013,6.586,12.047c3.748,3.035,8.406,4.551,13.975,4.551
			c6.781,0,12.243-2.283,16.384-6.854l5.676,6.64c-2.569,2.998-5.766,5.284-9.584,6.854c-3.82,1.57-8.085,2.355-12.797,2.355
			c-5.996,0-11.316-1.23-15.955-3.694c-4.642-2.463-8.229-5.906-10.763-10.334c-2.535-4.425-3.801-9.423-3.801-14.991
			c0-5.497,1.231-10.458,3.694-14.885c2.463-4.426,5.853-7.871,10.173-10.334c4.318-2.463,9.19-3.694,14.617-3.694
			c5.424,0,10.262,1.231,14.51,3.694c4.246,2.463,7.566,5.908,9.959,10.334c2.392,4.428,3.587,9.495,3.587,15.207
			C485.271,406.402,485.199,407.437,485.058,408.722z M444.848,389.553c-3.32,2.998-5.266,6.925-5.837,11.779h36.409
			c-0.572-4.782-2.517-8.691-5.836-11.726c-3.32-3.034-7.442-4.551-12.368-4.551C452.289,385.056,448.167,386.555,444.848,389.553z"
			/>
		<path fill="#FFFFFF" d="M498.122,432.44c-4.283-1.247-7.641-2.837-10.066-4.765l4.283-8.139c2.498,1.785,5.532,3.213,9.103,4.283
			c3.568,1.07,7.175,1.606,10.815,1.606c8.995,0,13.493-2.57,13.493-7.71c0-1.714-0.607-3.069-1.821-4.069
			c-1.214-0.999-2.73-1.73-4.551-2.195c-1.82-0.464-4.408-0.98-7.764-1.553c-4.569-0.713-8.299-1.535-11.19-2.463
			c-2.892-0.927-5.373-2.498-7.442-4.712c-2.071-2.212-3.105-5.317-3.105-9.317c0-5.14,2.142-9.262,6.426-12.368
			c4.283-3.105,10.029-4.658,17.24-4.658c3.783,0,7.566,0.465,11.351,1.392c3.783,0.929,6.889,2.179,9.316,3.748l-4.39,8.139
			c-4.642-2.999-10.104-4.498-16.384-4.498c-4.355,0-7.676,0.714-9.959,2.142c-2.286,1.429-3.428,3.32-3.428,5.675
			c0,1.858,0.643,3.32,1.929,4.391c1.284,1.071,2.872,1.857,4.765,2.355c1.891,0.5,4.551,1.071,7.978,1.713
			c4.568,0.786,8.263,1.625,11.083,2.517c2.82,0.894,5.229,2.409,7.229,4.551c1.998,2.142,2.999,5.141,2.999,8.995
			c0,5.141-2.195,9.228-6.586,12.262c-4.391,3.035-10.37,4.551-17.938,4.551C506.866,434.314,502.405,433.688,498.122,432.44z"/>
		<path fill="#FFFFFF" d="M576.507,430.353c-1.499,1.285-3.355,2.267-5.567,2.944c-2.214,0.678-4.498,1.018-6.854,1.018
			c-5.712,0-10.138-1.534-13.278-4.604c-3.142-3.069-4.711-7.459-4.711-13.171v-31.162h-9.638v-8.46h9.638v-12.422h10.28v12.422
			h16.276v8.46h-16.276v30.733c0,3.071,0.766,5.426,2.302,7.068c1.534,1.643,3.729,2.463,6.586,2.463
			c3.141,0,5.817-0.892,8.031-2.677L576.507,430.353z"/>
	</g>
	<g>
		<path fill="#FFFFFF" d="M36.521,471.162H24.502l-2.488,5.654h-3.327L28.928,454.2h3.199l10.275,22.616h-3.393L36.521,471.162z
			 M35.39,468.578l-4.878-11.083l-4.879,11.083H35.39z"/>
		<path fill="#FFFFFF" d="M60.398,459.692v14.799c0,2.993-0.743,5.206-2.229,6.64c-1.486,1.432-3.705,2.148-6.656,2.148
			c-1.616,0-3.156-0.221-4.621-0.663c-1.465-0.441-2.649-1.071-3.554-1.89l1.486-2.391c0.797,0.688,1.782,1.232,2.957,1.631
			c1.174,0.398,2.385,0.598,3.635,0.598c2.003,0,3.484-0.474,4.443-1.422c0.958-0.947,1.438-2.39,1.438-4.328v-1.357
			c-0.732,0.883-1.631,1.546-2.698,1.986c-1.066,0.442-2.225,0.663-3.474,0.663c-1.637,0-3.118-0.351-4.442-1.05
			c-1.325-0.7-2.364-1.681-3.118-2.941c-0.754-1.26-1.131-2.697-1.131-4.313c0-1.616,0.377-3.054,1.131-4.313
			c0.754-1.261,1.793-2.235,3.118-2.925s2.806-1.033,4.442-1.033c1.292,0,2.493,0.237,3.603,0.711c1.109,0.475,2.019,1.174,2.73,2.1
			v-2.649H60.398z M54.502,472.681c0.894-0.473,1.593-1.136,2.1-1.986c0.505-0.851,0.759-1.814,0.759-2.892
			c0-1.658-0.55-3-1.648-4.022c-1.099-1.023-2.51-1.535-4.233-1.535c-1.744,0-3.166,0.512-4.265,1.535
			c-1.099,1.022-1.648,2.364-1.648,4.022c0,1.077,0.253,2.041,0.759,2.892c0.506,0.851,1.206,1.514,2.1,1.986
			c0.894,0.476,1.912,0.712,3.053,0.712C52.601,473.393,53.608,473.156,54.502,472.681z"/>
		<path fill="#FFFFFF" d="M80.43,469.289H66.537c0.194,1.508,0.856,2.719,1.987,3.635s2.537,1.373,4.217,1.373
			c2.046,0,3.694-0.689,4.943-2.067l1.712,2.003c-0.776,0.904-1.74,1.594-2.892,2.068c-1.153,0.474-2.44,0.71-3.861,0.71
			c-1.81,0-3.414-0.372-4.814-1.114c-1.401-0.744-2.483-1.782-3.247-3.118c-0.765-1.335-1.147-2.844-1.147-4.523
			c0-1.658,0.372-3.155,1.115-4.491c0.743-1.336,1.766-2.375,3.069-3.118c1.303-0.743,2.773-1.114,4.41-1.114
			c1.637,0,3.096,0.371,4.378,1.114s2.283,1.782,3.005,3.118s1.083,2.865,1.083,4.588C80.495,468.59,80.473,468.9,80.43,469.289z
			 M68.297,463.506c-1.001,0.904-1.589,2.089-1.761,3.554h10.986c-0.173-1.443-0.76-2.622-1.761-3.538
			c-1.002-0.915-2.246-1.373-3.732-1.373S69.299,462.601,68.297,463.506z"/>
		<path fill="#FFFFFF" d="M97.829,461.421c1.282,1.261,1.923,3.107,1.923,5.542v9.854H96.65v-9.498c0-1.659-0.399-2.908-1.196-3.748
			c-0.797-0.84-1.939-1.261-3.425-1.261c-1.68,0-3.005,0.49-3.975,1.471c-0.969,0.979-1.454,2.386-1.454,4.216v8.82H83.5v-17.124
			h2.973v2.585c0.624-0.883,1.47-1.561,2.536-2.035c1.066-0.474,2.277-0.711,3.635-0.711
			C94.819,459.531,96.547,460.161,97.829,461.421z"/>
		<path fill="#FFFFFF" d="M113.839,475.815c-0.452,0.388-1.013,0.685-1.68,0.889c-0.668,0.204-1.357,0.307-2.067,0.307
			c-1.724,0-3.06-0.462-4.007-1.389c-0.948-0.927-1.422-2.251-1.422-3.975v-9.402h-2.908v-2.553h2.908v-3.747h3.102v3.747h4.912
			v2.553h-4.912v9.272c0,0.927,0.232,1.639,0.695,2.133c0.463,0.496,1.125,0.743,1.987,0.743c0.947,0,1.755-0.269,2.423-0.808
			L113.839,475.815z"/>
		<path fill="#FFFFFF" d="M131.706,469.289h-13.893c0.193,1.508,0.855,2.719,1.986,3.635s2.537,1.373,4.217,1.373
			c2.046,0,3.694-0.689,4.944-2.067l1.712,2.003c-0.776,0.904-1.74,1.594-2.892,2.068c-1.153,0.474-2.439,0.71-3.861,0.71
			c-1.81,0-3.414-0.372-4.814-1.114c-1.401-0.744-2.483-1.782-3.247-3.118c-0.765-1.335-1.147-2.844-1.147-4.523
			c0-1.658,0.372-3.155,1.115-4.491c0.743-1.336,1.766-2.375,3.069-3.118c1.303-0.743,2.773-1.114,4.411-1.114
			c1.636,0,3.096,0.371,4.377,1.114s2.283,1.782,3.005,3.118s1.083,2.865,1.083,4.588C131.771,468.59,131.749,468.9,131.706,469.289
			z M119.573,463.506c-1.001,0.904-1.589,2.089-1.76,3.554h10.985c-0.173-1.443-0.76-2.622-1.761-3.538
			c-1.002-0.915-2.246-1.373-3.731-1.373C121.819,462.148,120.575,462.601,119.573,463.506z"/>
		<path fill="#FFFFFF" d="M157.037,471.162h-12.019l-2.488,5.654h-3.328l10.242-22.616h3.199l10.275,22.616h-3.393L157.037,471.162z
			 M155.906,468.578l-4.878-11.083l-4.879,11.083H155.906z"/>
		<path fill="#FFFFFF" d="M180.494,459.692v17.124h-2.94v-2.584c-0.625,0.883-1.449,1.566-2.472,2.051
			c-1.024,0.485-2.138,0.728-3.344,0.728c-2.284,0-4.082-0.63-5.396-1.89c-1.314-1.261-1.971-3.118-1.971-5.574v-9.854h3.102v9.499
			c0,1.66,0.399,2.914,1.196,3.765c0.796,0.851,1.938,1.276,3.425,1.276c1.637,0,2.929-0.496,3.877-1.486s1.422-2.391,1.422-4.2
			v-8.854H180.494z"/>
		<path fill="#FFFFFF" d="M194.742,475.815c-0.452,0.388-1.013,0.685-1.68,0.889s-1.357,0.307-2.067,0.307
			c-1.724,0-3.06-0.462-4.007-1.389c-0.948-0.927-1.421-2.251-1.421-3.975v-9.402h-2.908v-2.553h2.908v-3.747h3.102v3.747h4.912
			v2.553h-4.912v9.272c0,0.927,0.231,1.639,0.695,2.133c0.463,0.496,1.125,0.743,1.987,0.743c0.947,0,1.755-0.269,2.423-0.808
			L194.742,475.815z"/>
		<path fill="#FFFFFF" d="M199.943,475.88c-1.356-0.753-2.418-1.793-3.182-3.118c-0.765-1.324-1.147-2.827-1.147-4.507
			s0.383-3.183,1.147-4.507c0.764-1.325,1.826-2.359,3.182-3.103c1.357-0.743,2.887-1.114,4.589-1.114
			c1.701,0,3.225,0.371,4.571,1.114s2.402,1.777,3.167,3.103c0.764,1.324,1.147,2.827,1.147,4.507s-0.383,3.183-1.147,4.507
			c-0.765,1.325-1.82,2.365-3.167,3.118c-1.346,0.754-2.87,1.131-4.571,1.131C202.83,477.011,201.301,476.634,199.943,475.88z
			 M207.472,457.205l-2.973-2.488l-2.972,2.488h-2.811l4.297-4.2h2.973l4.297,4.2H207.472z M207.488,473.537
			c0.873-0.505,1.556-1.217,2.052-2.133c0.495-0.914,0.743-1.965,0.743-3.149s-0.248-2.234-0.743-3.15
			c-0.496-0.915-1.179-1.62-2.052-2.116c-0.872-0.495-1.858-0.743-2.956-0.743c-1.099,0-2.084,0.248-2.957,0.743
			c-0.873,0.496-1.562,1.201-2.068,2.116c-0.506,0.916-0.759,1.966-0.759,3.15s0.253,2.235,0.759,3.149
			c0.506,0.916,1.195,1.628,2.068,2.133c0.872,0.507,1.858,0.76,2.957,0.76C205.63,474.297,206.616,474.044,207.488,473.537z"/>
		<path fill="#FFFFFF" d="M230.751,461.421c1.282,1.261,1.923,3.107,1.923,5.542v9.854h-3.102v-9.498
			c0-1.659-0.398-2.908-1.196-3.748c-0.797-0.84-1.938-1.261-3.425-1.261c-1.68,0-3.005,0.49-3.974,1.471
			c-0.969,0.979-1.454,2.386-1.454,4.216v8.82h-3.102v-17.124h2.973v2.585c0.624-0.883,1.47-1.561,2.536-2.035
			c1.066-0.474,2.278-0.711,3.635-0.711C227.741,459.531,229.47,460.161,230.751,461.421z"/>
		<path fill="#FFFFFF" d="M239.879,475.88c-1.357-0.753-2.418-1.793-3.183-3.118c-0.765-1.324-1.147-2.827-1.147-4.507
			s0.382-3.183,1.147-4.507c0.764-1.325,1.826-2.359,3.183-3.103c1.357-0.743,2.886-1.114,4.588-1.114
			c1.701,0,3.225,0.371,4.571,1.114s2.402,1.777,3.167,3.103c0.765,1.324,1.147,2.827,1.147,4.507s-0.383,3.183-1.147,4.507
			c-0.765,1.325-1.82,2.365-3.167,3.118c-1.346,0.754-2.87,1.131-4.571,1.131C242.765,477.011,241.236,476.634,239.879,475.88z
			 M247.423,473.537c0.873-0.505,1.557-1.217,2.052-2.133c0.495-0.914,0.743-1.965,0.743-3.149s-0.248-2.234-0.743-3.15
			c-0.496-0.915-1.179-1.62-2.052-2.116c-0.872-0.495-1.857-0.743-2.956-0.743c-1.099,0-2.084,0.248-2.957,0.743
			c-0.873,0.496-1.562,1.201-2.068,2.116c-0.506,0.916-0.759,1.966-0.759,3.15s0.253,2.235,0.759,3.149
			c0.506,0.916,1.195,1.628,2.068,2.133c0.872,0.507,1.858,0.76,2.957,0.76C245.565,474.297,246.551,474.044,247.423,473.537z"/>
		<path fill="#FFFFFF" d="M282.9,461.405c1.26,1.249,1.89,3.102,1.89,5.558v9.854h-3.102v-9.498c0-1.659-0.383-2.908-1.147-3.748
			s-1.858-1.261-3.279-1.261c-1.573,0-2.822,0.49-3.749,1.471c-0.926,0.979-1.389,2.386-1.389,4.216v8.82h-3.102v-9.498
			c0-1.659-0.383-2.908-1.147-3.748c-0.765-0.84-1.857-1.261-3.279-1.261c-1.573,0-2.822,0.49-3.748,1.471
			c-0.926,0.979-1.39,2.386-1.39,4.216v8.82h-3.102v-17.124h2.973v2.553c0.624-0.883,1.442-1.556,2.455-2.019
			c1.012-0.464,2.165-0.695,3.457-0.695c1.335,0,2.521,0.27,3.554,0.808c1.034,0.539,1.831,1.325,2.391,2.358
			c0.646-0.99,1.545-1.766,2.698-2.326c1.152-0.56,2.451-0.84,3.894-0.84C279.933,459.531,281.64,460.156,282.9,461.405z"/>
		<path fill="#FFFFFF" d="M291.962,475.88c-1.356-0.753-2.418-1.793-3.182-3.118c-0.765-1.324-1.147-2.827-1.147-4.507
			s0.382-3.183,1.147-4.507c0.764-1.325,1.826-2.359,3.182-3.103c1.357-0.743,2.887-1.114,4.588-1.114s3.226,0.371,4.571,1.114
			c1.347,0.743,2.402,1.777,3.167,3.103c0.764,1.324,1.147,2.827,1.147,4.507s-0.384,3.183-1.147,4.507
			c-0.765,1.325-1.82,2.365-3.167,3.118c-1.346,0.754-2.87,1.131-4.571,1.131S293.32,476.634,291.962,475.88z M299.507,473.537
			c0.873-0.505,1.557-1.217,2.052-2.133c0.495-0.914,0.743-1.965,0.743-3.149s-0.248-2.234-0.743-3.15
			c-0.495-0.915-1.179-1.62-2.052-2.116c-0.872-0.495-1.858-0.743-2.956-0.743c-1.099,0-2.084,0.248-2.957,0.743
			c-0.873,0.496-1.562,1.201-2.068,2.116c-0.506,0.916-0.759,1.966-0.759,3.15s0.253,2.235,0.759,3.149
			c0.506,0.916,1.195,1.628,2.068,2.133c0.873,0.507,1.858,0.76,2.957,0.76C297.649,474.297,298.635,474.044,299.507,473.537z"/>
		<path fill="#FFFFFF" d="M331.994,452.844v23.973h-2.972v-2.714c-0.69,0.948-1.563,1.67-2.617,2.165
			c-1.056,0.496-2.219,0.743-3.49,0.743c-1.659,0-3.145-0.366-4.459-1.099c-1.313-0.732-2.343-1.761-3.085-3.086
			c-0.743-1.324-1.115-2.848-1.115-4.571c0-1.723,0.372-3.241,1.115-4.556c0.742-1.314,1.771-2.337,3.085-3.069
			c1.314-0.732,2.8-1.099,4.459-1.099c1.229,0,2.359,0.231,3.393,0.695c1.034,0.463,1.896,1.146,2.585,2.051v-9.434H331.994z
			 M326.114,473.537c0.883-0.505,1.572-1.217,2.067-2.133c0.495-0.914,0.743-1.965,0.743-3.149s-0.248-2.234-0.743-3.15
			c-0.495-0.915-1.185-1.62-2.067-2.116c-0.884-0.495-1.863-0.743-2.94-0.743c-1.099,0-2.084,0.248-2.956,0.743
			c-0.873,0.496-1.563,1.201-2.068,2.116c-0.506,0.916-0.759,1.966-0.759,3.15s0.253,2.235,0.759,3.149
			c0.506,0.916,1.195,1.628,2.068,2.133c0.872,0.507,1.857,0.76,2.956,0.76C324.251,474.297,325.23,474.044,326.114,473.537z"/>
		<path fill="#FFFFFF" d="M351.994,469.289h-13.894c0.194,1.508,0.856,2.719,1.987,3.635s2.536,1.373,4.217,1.373
			c2.046,0,3.693-0.689,4.943-2.067l1.712,2.003c-0.775,0.904-1.739,1.594-2.892,2.068c-1.152,0.474-2.439,0.71-3.861,0.71
			c-1.81,0-3.414-0.372-4.813-1.114c-1.401-0.744-2.483-1.782-3.247-3.118c-0.766-1.335-1.147-2.844-1.147-4.523
			c0-1.658,0.371-3.155,1.115-4.491c0.742-1.336,1.766-2.375,3.069-3.118c1.303-0.743,2.772-1.114,4.41-1.114
			c1.637,0,3.096,0.371,4.378,1.114c1.281,0.743,2.283,1.782,3.005,3.118s1.082,2.865,1.082,4.588
			C352.059,468.59,352.037,468.9,351.994,469.289z M339.861,463.506c-1.001,0.904-1.589,2.089-1.761,3.554h10.986
			c-0.173-1.443-0.76-2.622-1.762-3.538c-1.002-0.915-2.245-1.373-3.731-1.373S340.863,462.601,339.861,463.506z"/>
		<path fill="#FFFFFF" d="M362.463,454.276h3.102v22.54h-3.102V454.276z"/>
		<path fill="#FFFFFF" d="M384.514,461.421c1.281,1.261,1.923,3.107,1.923,5.542v9.854h-3.102v-9.498
			c0-1.659-0.399-2.908-1.196-3.748s-1.938-1.261-3.425-1.261c-1.68,0-3.005,0.49-3.975,1.471c-0.969,0.979-1.454,2.386-1.454,4.216
			v8.82h-3.102v-17.124h2.974v2.585c0.624-0.883,1.47-1.561,2.536-2.035c1.065-0.474,2.277-0.711,3.635-0.711
			C381.503,459.531,383.231,460.161,384.514,461.421z"/>
		<path fill="#FFFFFF" d="M406.049,459.692l-7.496,17.124h-3.166l-7.496-17.124h3.231l5.88,13.731l6.01-13.731H406.049z"/>
		<path fill="#FFFFFF" d="M423.076,469.289h-13.894c0.193,1.508,0.855,2.719,1.986,3.635s2.537,1.373,4.217,1.373
			c2.046,0,3.694-0.689,4.944-2.067l1.712,2.003c-0.775,0.904-1.74,1.594-2.892,2.068c-1.153,0.474-2.439,0.71-3.861,0.71
			c-1.81,0-3.414-0.372-4.814-1.114c-1.4-0.744-2.482-1.782-3.247-3.118c-0.765-1.335-1.147-2.844-1.147-4.523
			c0-1.658,0.372-3.155,1.115-4.491s1.766-2.375,3.069-3.118s2.773-1.114,4.411-1.114c1.636,0,3.096,0.371,4.377,1.114
			c1.282,0.743,2.283,1.782,3.006,3.118c0.721,1.336,1.082,2.865,1.082,4.588C423.141,468.59,423.119,468.9,423.076,469.289z
			 M410.943,463.506c-1.002,0.904-1.589,2.089-1.761,3.554h10.985c-0.173-1.443-0.76-2.622-1.761-3.538
			c-1.002-0.915-2.246-1.373-3.731-1.373C413.188,462.148,411.944,462.601,410.943,463.506z"/>
		<path fill="#FFFFFF" d="M427.018,476.445c-1.292-0.377-2.305-0.856-3.037-1.438l1.292-2.455c0.754,0.538,1.669,0.969,2.747,1.292
			c1.076,0.323,2.164,0.485,3.263,0.485c2.714,0,4.071-0.776,4.071-2.327c0-0.517-0.184-0.926-0.549-1.228
			c-0.367-0.302-0.824-0.522-1.374-0.662c-0.549-0.141-1.33-0.297-2.342-0.469c-1.379-0.215-2.504-0.463-3.377-0.744
			c-0.872-0.279-1.62-0.753-2.245-1.421c-0.625-0.667-0.938-1.604-0.938-2.812c0-1.551,0.646-2.795,1.938-3.731
			c1.293-0.938,3.026-1.405,5.202-1.405c1.142,0,2.283,0.141,3.426,0.42c1.141,0.28,2.077,0.657,2.811,1.131l-1.325,2.455
			c-1.4-0.904-3.048-1.357-4.943-1.357c-1.313,0-2.315,0.217-3.005,0.646c-0.689,0.432-1.034,1.002-1.034,1.713
			c0,0.561,0.194,1.002,0.582,1.324c0.388,0.323,0.866,0.561,1.438,0.712c0.57,0.15,1.373,0.323,2.407,0.517
			c1.379,0.237,2.493,0.49,3.345,0.76c0.851,0.27,1.577,0.727,2.181,1.373c0.603,0.646,0.904,1.551,0.904,2.714
			c0,1.55-0.662,2.784-1.986,3.699c-1.325,0.915-3.13,1.373-5.412,1.373C429.655,477.011,428.311,476.822,427.018,476.445z"/>
		<path fill="#FFFFFF" d="M450.668,475.815c-0.452,0.388-1.013,0.685-1.68,0.889c-0.668,0.204-1.357,0.307-2.067,0.307
			c-1.725,0-3.06-0.462-4.007-1.389c-0.948-0.927-1.422-2.251-1.422-3.975v-9.402h-2.908v-2.553h2.908v-3.747h3.102v3.747h4.912
			v2.553h-4.912v9.272c0,0.927,0.231,1.639,0.695,2.133c0.463,0.496,1.125,0.743,1.986,0.743c0.947,0,1.756-0.269,2.424-0.808
			L450.668,475.815z"/>
		<path fill="#FFFFFF" d="M453.172,455.815c-0.398-0.388-0.598-0.861-0.598-1.422c0-0.56,0.199-1.038,0.598-1.438
			c0.398-0.397,0.899-0.598,1.503-0.598c0.603,0,1.104,0.188,1.502,0.565s0.598,0.846,0.598,1.405c0,0.581-0.199,1.071-0.598,1.47
			s-0.899,0.599-1.502,0.599C454.071,456.397,453.57,456.203,453.172,455.815z M453.123,459.692h3.102v17.124h-3.102V459.692z"/>
		<path fill="#FFFFFF" d="M487.388,461.405c1.261,1.249,1.89,3.102,1.89,5.558v9.854h-3.102v-9.498c0-1.659-0.382-2.908-1.146-3.748
			c-0.766-0.84-1.858-1.261-3.279-1.261c-1.572,0-2.822,0.49-3.749,1.471c-0.926,0.979-1.389,2.386-1.389,4.216v8.82h-3.102v-9.498
			c0-1.659-0.383-2.908-1.147-3.748s-1.857-1.261-3.279-1.261c-1.572,0-2.822,0.49-3.748,1.471c-0.926,0.979-1.39,2.386-1.39,4.216
			v8.82h-3.102v-17.124h2.973v2.553c0.624-0.883,1.443-1.556,2.456-2.019c1.012-0.464,2.164-0.695,3.457-0.695
			c1.335,0,2.521,0.27,3.554,0.808c1.034,0.539,1.831,1.325,2.392,2.358c0.646-0.99,1.545-1.766,2.697-2.326
			c1.152-0.56,2.45-0.84,3.894-0.84C484.421,459.531,486.128,460.156,487.388,461.405z"/>
		<path fill="#FFFFFF" d="M509.116,469.289h-13.894c0.194,1.508,0.856,2.719,1.986,3.635c1.132,0.916,2.537,1.373,4.217,1.373
			c2.047,0,3.694-0.689,4.944-2.067l1.712,2.003c-0.775,0.904-1.74,1.594-2.892,2.068c-1.153,0.474-2.439,0.71-3.861,0.71
			c-1.81,0-3.414-0.372-4.813-1.114c-1.401-0.744-2.483-1.782-3.248-3.118c-0.765-1.335-1.146-2.844-1.146-4.523
			c0-1.658,0.371-3.155,1.114-4.491s1.767-2.375,3.069-3.118c1.304-0.743,2.773-1.114,4.411-1.114c1.636,0,3.096,0.371,4.378,1.114
			c1.281,0.743,2.283,1.782,3.005,3.118c0.721,1.336,1.082,2.865,1.082,4.588C509.181,468.59,509.159,468.9,509.116,469.289z
			 M496.983,463.506c-1.001,0.904-1.589,2.089-1.761,3.554h10.985c-0.173-1.443-0.76-2.622-1.761-3.538
			c-1.002-0.915-2.245-1.373-3.731-1.373C499.229,462.148,497.985,462.601,496.983,463.506z"/>
		<path fill="#FFFFFF" d="M526.516,461.421c1.281,1.261,1.923,3.107,1.923,5.542v9.854h-3.103v-9.498
			c0-1.659-0.398-2.908-1.195-3.748s-1.938-1.261-3.425-1.261c-1.68,0-3.005,0.49-3.975,1.471c-0.969,0.979-1.454,2.386-1.454,4.216
			v8.82h-3.102v-17.124h2.973v2.585c0.625-0.883,1.47-1.561,2.537-2.035c1.065-0.474,2.277-0.711,3.635-0.711
			C523.505,459.531,525.233,460.161,526.516,461.421z"/>
		<path fill="#FFFFFF" d="M542.525,475.815c-0.453,0.388-1.013,0.685-1.681,0.889s-1.356,0.307-2.067,0.307
			c-1.725,0-3.06-0.462-4.007-1.389c-0.948-0.927-1.422-2.251-1.422-3.975v-9.402h-2.907v-2.553h2.907v-3.747h3.102v3.747h4.912
			v2.553h-4.912v9.272c0,0.927,0.232,1.639,0.695,2.133c0.463,0.496,1.125,0.743,1.987,0.743c0.947,0,1.755-0.269,2.423-0.808
			L542.525,475.815z"/>
		<path fill="#FFFFFF" d="M547.727,475.88c-1.357-0.753-2.418-1.793-3.183-3.118c-0.765-1.324-1.147-2.827-1.147-4.507
			s0.383-3.183,1.147-4.507c0.765-1.325,1.825-2.359,3.183-3.103s2.887-1.114,4.588-1.114s3.226,0.371,4.571,1.114
			c1.347,0.743,2.402,1.777,3.167,3.103c0.765,1.324,1.147,2.827,1.147,4.507s-0.383,3.183-1.147,4.507
			c-0.765,1.325-1.82,2.365-3.167,3.118c-1.346,0.754-2.87,1.131-4.571,1.131S549.084,476.634,547.727,475.88z M555.271,473.537
			c0.873-0.505,1.557-1.217,2.052-2.133c0.495-0.914,0.743-1.965,0.743-3.149s-0.248-2.234-0.743-3.15
			c-0.495-0.915-1.179-1.62-2.052-2.116c-0.872-0.495-1.857-0.743-2.956-0.743s-2.084,0.248-2.956,0.743
			c-0.873,0.496-1.562,1.201-2.068,2.116c-0.506,0.916-0.759,1.966-0.759,3.15s0.253,2.235,0.759,3.149
			c0.507,0.916,1.195,1.628,2.068,2.133c0.872,0.507,1.857,0.76,2.956,0.76S554.398,474.044,555.271,473.537z"/>
		<path fill="#FFFFFF" d="M565.077,476.445c-1.292-0.377-2.305-0.856-3.037-1.438l1.292-2.455c0.754,0.538,1.67,0.969,2.747,1.292
			c1.076,0.323,2.164,0.485,3.263,0.485c2.714,0,4.071-0.776,4.071-2.327c0-0.517-0.184-0.926-0.549-1.228
			c-0.367-0.302-0.824-0.522-1.374-0.662c-0.549-0.141-1.33-0.297-2.342-0.469c-1.379-0.215-2.504-0.463-3.377-0.744
			c-0.872-0.279-1.621-0.753-2.245-1.421c-0.625-0.667-0.938-1.604-0.938-2.812c0-1.551,0.646-2.795,1.938-3.731
			c1.293-0.938,3.026-1.405,5.202-1.405c1.142,0,2.283,0.141,3.425,0.42c1.142,0.28,2.078,0.657,2.812,1.131l-1.325,2.455
			c-1.4-0.904-3.049-1.357-4.943-1.357c-1.313,0-2.315,0.217-3.005,0.646c-0.689,0.432-1.034,1.002-1.034,1.713
			c0,0.561,0.194,1.002,0.582,1.324c0.388,0.323,0.866,0.561,1.438,0.712c0.57,0.15,1.373,0.323,2.407,0.517
			c1.379,0.237,2.493,0.49,3.345,0.76c0.851,0.27,1.577,0.727,2.181,1.373c0.603,0.646,0.904,1.551,0.904,2.714
			c0,1.55-0.662,2.784-1.986,3.699c-1.325,0.915-3.13,1.373-5.412,1.373C567.715,477.011,566.37,476.822,565.077,476.445z"/>
	</g>
	<g>
		<path fill="#FFFFFF" d="M33.12,411.202c0.468,3.306,1.387,5.777,2.756,7.414c2.506,2.978,6.8,4.467,12.882,4.467
			c3.642,0,6.6-0.393,8.872-1.178c4.311-1.505,6.466-4.303,6.466-8.395c0-2.388-1.056-4.238-3.167-5.547
			c-2.113-1.276-5.462-2.405-10.047-3.387l-7.834-1.718c-7.7-1.702-12.99-3.551-15.869-5.547c-4.877-3.338-7.315-8.558-7.315-15.661
			c0-6.48,2.385-11.863,7.156-16.151c4.771-4.287,11.778-6.431,21.022-6.431c7.719,0,14.304,2.021,19.754,6.063
			c5.45,4.042,8.308,9.909,8.573,17.6H61.838c-0.269-4.353-2.214-7.445-5.838-9.278c-2.416-1.21-5.418-1.816-9.008-1.816
			c-3.993,0-7.18,0.786-9.563,2.356c-2.382,1.571-3.573,3.764-3.573,6.578c0,2.586,1.174,4.517,3.523,5.793
			c1.51,0.852,4.713,1.849,9.614,2.995l12.699,2.995c5.566,1.31,9.737,3.061,12.516,5.253c4.313,3.404,6.47,8.33,6.47,14.776
			c0,6.612-2.556,12.102-7.667,16.471s-12.331,6.554-21.659,6.554c-9.527,0-17.02-2.151-22.478-6.455s-8.187-10.219-8.187-17.748
			H33.12z"/>
		<path fill="#FFFFFF" d="M107.672,400.991c2.604-0.327,4.467-0.736,5.588-1.227c2.011-0.851,3.017-2.176,3.017-3.977
			c0-2.192-0.772-3.707-2.314-4.541s-3.807-1.252-6.792-1.252c-3.351,0-5.723,0.818-7.116,2.455
			c-0.996,1.211-1.659,2.847-1.991,4.909h-13.5c0.295-4.68,1.61-8.525,3.944-11.537c3.714-4.713,10.091-7.069,19.131-7.069
			c5.883,0,11.109,1.162,15.679,3.486c4.569,2.324,6.853,6.709,6.853,13.157v24.546c0,1.702,0.032,3.765,0.098,6.186
			c0.098,1.833,0.376,3.077,0.834,3.731c0.458,0.654,1.146,1.195,2.062,1.619v2.063h-15.219c-0.425-1.08-0.72-2.094-0.883-3.044
			c-0.165-0.948-0.295-2.028-0.393-3.239c-1.942,2.094-4.181,3.878-6.716,5.35c-3.028,1.735-6.452,2.603-10.271,2.603
			c-4.873,0-8.896-1.383-12.073-4.147c-3.177-2.766-4.765-6.685-4.765-11.758c0-6.579,2.555-11.34,7.665-14.286
			c2.803-1.604,6.924-2.749,12.364-3.437L107.672,400.991z M116.228,407.52c-0.896,0.557-1.8,1.006-2.712,1.35
			c-0.913,0.344-2.165,0.663-3.757,0.957l-3.185,0.589c-2.985,0.524-5.129,1.162-6.431,1.915c-2.204,1.276-3.305,3.257-3.305,5.94
			c0,2.39,0.672,4.116,2.019,5.18c1.346,1.063,2.982,1.596,4.91,1.596c3.058,0,5.874-0.885,8.449-2.652
			c2.576-1.767,3.913-4.99,4.013-9.671V407.52z"/>
		<path fill="#FFFFFF" d="M162.513,360.514c0.719,0.049,1.701,0.123,2.945,0.221v11.389c-0.785-0.098-2.103-0.171-3.952-0.221
			c-1.85-0.049-3.126,0.361-3.829,1.228c-0.705,0.868-1.056,1.825-1.056,2.872c0,1.048,0,2.553,0,4.517h9.18v9.867h-9.18v43.152
			h-13.893v-43.152h-7.855v-9.867h7.659v-3.437c0-5.727,0.965-9.671,2.896-11.832c2.029-3.207,6.922-4.811,14.678-4.811
			C160.991,360.44,161.793,360.465,162.513,360.514z"/>
		<path fill="#FFFFFF" d="M199.14,378.776c0.18,0.017,0.581,0.042,1.203,0.074v14.335c-0.884-0.098-1.669-0.164-2.356-0.196
			c-0.688-0.032-1.244-0.049-1.669-0.049c-5.629,0-9.41,1.833-11.34,5.499c-1.08,2.062-1.62,5.237-1.62,9.524v25.577h-14.089
			v-53.511h13.353v9.328c2.16-3.567,4.042-6.005,5.646-7.314c2.618-2.193,6.021-3.29,10.211-3.29
			C198.739,378.752,198.959,378.76,199.14,378.776z"/>
		<path fill="#FFFFFF" d="M226.54,400.991c2.604-0.327,4.467-0.736,5.588-1.227c2.011-0.851,3.017-2.176,3.017-3.977
			c0-2.192-0.772-3.707-2.314-4.541s-3.807-1.252-6.792-1.252c-3.351,0-5.723,0.818-7.116,2.455
			c-0.996,1.211-1.659,2.847-1.991,4.909h-13.5c0.295-4.68,1.61-8.525,3.944-11.537c3.714-4.713,10.091-7.069,19.131-7.069
			c5.883,0,11.109,1.162,15.679,3.486c4.569,2.324,6.853,6.709,6.853,13.157v24.546c0,1.702,0.032,3.765,0.098,6.186
			c0.098,1.833,0.376,3.077,0.834,3.731c0.458,0.654,1.146,1.195,2.062,1.619v2.063h-15.219c-0.426-1.08-0.72-2.094-0.884-3.044
			c-0.164-0.948-0.294-2.028-0.393-3.239c-1.942,2.094-4.181,3.878-6.715,5.35c-3.029,1.735-6.453,2.603-10.271,2.603
			c-4.872,0-8.896-1.383-12.073-4.147c-3.177-2.766-4.765-6.685-4.765-11.758c0-6.579,2.555-11.34,7.666-14.286
			c2.803-1.604,6.924-2.749,12.364-3.437L226.54,400.991z M235.095,407.52c-0.896,0.557-1.8,1.006-2.712,1.35
			c-0.913,0.344-2.165,0.663-3.757,0.957l-3.185,0.589c-2.986,0.524-5.129,1.162-6.431,1.915c-2.204,1.276-3.305,3.257-3.305,5.94
			c0,2.39,0.672,4.116,2.019,5.18c1.346,1.063,2.982,1.596,4.91,1.596c3.058,0,5.874-0.885,8.449-2.652
			c2.576-1.767,3.913-4.99,4.013-9.671V407.52z"/>
	</g>
</g>
</svg>
